<?xml version="1.0" standalone="no"?>
<!DOCTYPE svg PUBLIC "-//W3C//DTD SVG 20010904//EN"
 "http://www.w3.org/TR/2001/REC-SVG-20010904/DTD/svg10.dtd">
<svg version="1.0" xmlns="http://www.w3.org/2000/svg"
 width="53.8" height="53.8" viewBox="0 0 256.000000 256.000000"
 preserveAspectRatio="xMidYMid meet">

<g transform="translate(0.000000,256.000000) scale(0.100000,-0.100000)"
fill="#3ad1e8" stroke="none">
<path d="M1080 2543 c-175 -26 -363 -101 -520 -206 -96 -64 -273 -241 -337
-337 -295 -442 -295 -998 0 -1440 64 -96 241 -273 337 -337 442 -295 998 -295
1440 0 96 64 273 241 337 337 295 442 295 998 0 1440 -64 96 -241 273 -337
337 -274 183 -598 256 -920 206z m414 -142 c177 -16 265 -54 423 -180 116 -93
203 -185 231 -245 11 -23 40 -64 64 -91 64 -73 85 -106 115 -182 27 -68 27
-69 31 -378 3 -258 1 -322 -12 -379 -22 -92 -70 -179 -133 -242 -29 -29 -53
-58 -53 -65 0 -27 -59 -115 -112 -168 -47 -48 -139 -123 -232 -188 -59 -42
-181 -83 -245 -83 -33 0 -62 4 -65 9 -7 11 48 55 134 106 83 49 133 92 119
101 -24 15 -88 6 -125 -17 -22 -13 -82 -63 -134 -112 -52 -48 -113 -96 -136
-107 -45 -22 -118 -26 -161 -9 -15 7 -57 11 -93 10 -127 -4 -309 56 -388 128
-17 16 -46 39 -64 52 -98 68 -182 159 -223 239 -10 19 -44 67 -75 105 -122
148 -132 189 -138 541 -6 396 15 488 139 619 31 33 60 71 64 85 21 69 120 176
268 288 98 75 140 99 218 127 57 20 169 32 169 17 0 -12 -52 -54 -169 -137
-46 -33 -86 -66 -89 -72 -3 -9 12 -13 51 -13 61 0 61 0 238 158 123 111 109
108 383 83z"/>
<path d="M1278 2251 c-65 -21 -130 -57 -203 -112 -83 -63 -159 -93 -216 -86
-26 3 -61 13 -78 21 l-29 16 -106 -111 -106 -110 0 -103 c0 -117 -14 -176 -68
-281 -74 -147 -82 -165 -92 -227 -14 -87 -16 -80 40 -144 28 -32 65 -87 82
-122 29 -58 32 -75 36 -176 l4 -111 88 -95 89 -95 98 0 c90 0 102 -2 151 -29
29 -17 81 -55 115 -86 81 -73 106 -90 137 -90 46 0 174 50 230 90 155 112 231
136 341 110 l53 -13 98 104 97 104 1 104 c0 132 17 195 90 341 58 116 88 219
75 260 -4 11 -26 43 -50 71 -23 28 -58 78 -75 111 -30 55 -33 72 -39 174 l-6
113 -61 63 c-34 35 -74 76 -88 92 -25 28 -28 29 -121 27 -121 -3 -149 10 -268
120 -100 93 -125 101 -219 70z m-148 -686 l0 -176 158 3 157 3 3 173 2 172
100 0 100 0 0 -445 c0 -245 0 -448 0 -452 0 -5 -44 -8 -97 -8 l-98 0 -3 178
-2 177 -160 0 -160 0 0 -174 0 -175 -100 -3 -100 -3 -2 448 c-2 247 -1 451 1
453 2 2 49 4 103 4 l98 0 0 -175z"/>
<path d="M1590 2251 c16 -31 89 -91 113 -93 29 -2 59 1 76 7 28 11 -84 77
-158 94 -37 8 -40 7 -31 -8z"/>
<path d="M412 1762 c-18 -27 -42 -77 -53 -111 -20 -66 -26 -151 -10 -151 16 0
79 135 91 195 6 30 10 68 8 85 l-3 30 -33 -48z"/>
<path d="M2143 1740 c3 -71 25 -125 64 -165 36 -35 47 -32 39 14 -10 62 -46
146 -77 183 l-30 33 4 -65z"/>
<path d="M2218 1058 c-33 -44 -47 -71 -63 -125 -18 -61 -30 -153 -19 -153 17
1 62 76 82 136 20 58 39 174 29 174 -2 0 -16 -15 -29 -32z"/>
<path d="M334 1003 c28 -118 84 -232 107 -218 12 8 3 81 -18 139 -28 81 -105
149 -89 79z"/>
<path d="M818 423 c-36 -5 -35 -16 1 -42 47 -34 113 -61 150 -61 l35 0 -35 36
c-51 54 -99 74 -151 67z"/>
</g>
</svg>
